<svg width="606" height="534" viewBox="0 0 606 534" fill="none" xmlns="http://www.w3.org/2000/svg">
<mask id="path-1-outside-1_2_24" maskUnits="userSpaceOnUse" x="57" y="47" width="447" height="450" fill="black">
<rect fill="white" x="57" y="47" width="447" height="450"/>
<path d="M293.415 481.169C383.761 481.169 457 407.93 457 317.585C457 227.239 383.761 154 293.415 154C203.07 154 129.831 227.239 129.831 317.585C129.831 321.492 129.968 325.367 130.237 329.205C136.197 414.128 206.977 481.169 293.415 481.169Z"/>
</mask>
<path d="M82.5756 347.461L89.7869 345.4L89.7869 345.4L82.5756 347.461ZM72.2113 283.903C71.073 279.92 66.9217 277.614 62.939 278.753C58.9564 279.891 56.6505 284.042 57.7887 288.025L72.2113 283.903ZM457.246 285.163C454.042 287.789 453.574 292.514 456.199 295.718C458.825 298.922 463.551 299.39 466.754 296.765L457.246 285.163ZM483.931 272.99L479.177 267.189L479.177 267.189L483.931 272.99ZM495.172 237.714L502.405 235.733L502.405 235.733L495.172 237.714ZM485.234 173.019C484.14 169.024 480.014 166.672 476.019 167.766C472.024 168.86 469.672 172.986 470.766 176.981L485.234 173.019ZM219 55L224.614 50.0267C222.678 47.8416 219.651 46.9783 216.853 47.8137C214.056 48.6492 211.998 51.0317 211.578 53.9205L219 55ZM287.801 143.973C290.548 147.074 295.288 147.361 298.389 144.614C301.489 141.867 301.776 137.127 299.029 134.027L287.801 143.973ZM195.578 163.92C194.982 168.019 197.821 171.826 201.92 172.422C206.019 173.018 209.826 170.179 210.422 166.08L195.578 163.92ZM132.138 381.883C136.145 380.833 138.542 376.733 137.492 372.726C136.442 368.719 132.343 366.323 128.336 367.373L132.138 381.883ZM89.7869 345.4L72.2113 283.903L57.7887 288.025L75.3643 349.522L89.7869 345.4ZM466.754 296.765L488.685 278.79L479.177 267.189L457.246 285.163L466.754 296.765ZM502.405 235.733L485.234 173.019L470.766 176.981L487.938 239.695L502.405 235.733ZM213.386 59.9733L287.801 143.973L299.029 134.027L224.614 50.0267L213.386 59.9733ZM210.422 166.08L218.422 111.08L203.578 108.92L195.578 163.92L210.422 166.08ZM218.422 111.08L226.422 56.0795L211.578 53.9205L203.578 108.92L218.422 111.08ZM488.685 278.79C501.357 268.405 506.732 251.536 502.405 235.733L487.938 239.695C490.701 249.785 487.268 260.557 479.177 267.189L488.685 278.79ZM128.336 367.373C111.65 371.745 94.527 361.985 89.7869 345.4L75.3643 349.522C82.3454 373.949 107.563 388.323 132.138 381.883L128.336 367.373ZM130.237 329.205L115.274 330.256L115.274 330.256L130.237 329.205ZM442 317.585C442 399.646 375.476 466.169 293.415 466.169V496.169C392.045 496.169 472 416.214 472 317.585H442ZM144.831 317.585C144.831 235.524 211.354 169 293.415 169V139C194.786 139 114.831 218.955 114.831 317.585H144.831ZM293.415 169C375.476 169 442 235.524 442 317.585H472C472 218.955 392.045 139 293.415 139V169ZM293.415 466.169C214.909 466.169 150.613 405.276 145.2 328.155L115.274 330.256C121.782 422.98 199.045 496.169 293.415 496.169V466.169ZM145.2 328.155C144.955 324.666 144.831 321.141 144.831 317.585H114.831C114.831 321.842 114.98 326.068 115.274 330.256L145.2 328.155Z" fill="black" mask="url(#path-1-outside-1_2_24)"/>
<path d="M369.076 242.447C365.37 228.617 351.542 220.307 338.19 223.885C324.838 227.462 317.017 241.574 320.723 255.403" stroke="black" stroke-width="15" stroke-linecap="round"/>
<path d="M236.785 278.527C233.079 264.698 219.251 256.388 205.899 259.965C192.547 263.543 184.726 277.654 188.432 291.483" stroke="black" stroke-width="15" stroke-linecap="round"/>
<path d="M257.843 292.49C260.942 306.467 274.394 315.373 287.89 312.381C301.385 309.389 309.814 295.633 306.715 281.655" stroke="black" stroke-width="15" stroke-linecap="round"/>
<circle cx="219" cy="50" r="17.5" fill="#FF9C06" stroke="black" stroke-width="15"/>
<circle cx="431" cy="25" r="20" fill="#FF5252" stroke="black" stroke-width="10"/>
<circle cx="67" cy="509" r="20" fill="#3EEF45" stroke="black" stroke-width="10"/>
<path d="M551.525 399.224L576.525 400.224" stroke="#FF5252" stroke-width="8" stroke-linecap="round"/>
<path d="M563 412L564 387" stroke="#FF5252" stroke-width="8" stroke-linecap="round"/>
<path d="M4 54.2244L29 55.2244" stroke="#FF5252" stroke-width="8" stroke-linecap="round"/>
<path d="M15.4749 67L16.4749 42" stroke="#FF5252" stroke-width="8" stroke-linecap="round"/>
<circle cx="10" cy="10" r="10" transform="matrix(-1 0 0 1 75 131)" fill="#FF5252"/>
<circle cx="10" cy="10" r="10" transform="matrix(-1 0 0 1 606 241)" fill="#3EEF45"/>
</svg>
